<svg width="270" height="90" viewBox="0 0 270 90" fill="none" xmlns="http://www.w3.org/2000/svg">
<rect width="90" height="90" fill="#3E1707"/>
<rect x="5" y="5" width="80" height="80" rx="8" fill="#734331"/>
<rect x="90" width="90" height="90" fill="#D4C7AC"/>
<rect x="95" y="5" width="80" height="80" rx="8" fill="#F6EEDC"/>
<rect x="180" width="90" height="90" fill="#0D0D0C"/>
<rect x="185" y="5" width="80" height="80" rx="8" fill="#414041"/>
<path d="M29.91 35.4C27.5767 35.4 25.6633 34.7233 24.17 33.37C22.7233 32.0167 22 30.15 22 27.77C22 25.4367 22.6533 23.57 23.96 22.17C25.3133 20.7233 27.2967 20 29.91 20H60.08C62.6933 20 64.6533 20.7233 65.96 22.17C67.3133 23.57 67.99 25.4367 67.99 27.77C67.99 30.15 67.2433 32.0167 65.75 33.37C64.3033 34.7233 62.4133 35.4 60.08 35.4C58.4933 35.4 57.21 35.2367 56.23 34.91C55.2967 34.5367 54.5267 34.1167 53.92 33.65C53.3133 33.1367 52.73 32.7167 52.17 32.39C51.61 32.0167 50.91 31.83 50.07 31.83L49.44 33.09C49.6267 33.51 49.9533 34.1167 50.42 34.91C50.8867 35.6567 51.33 36.7533 51.75 38.2C52.17 39.6 52.38 41.5133 52.38 43.94V64.17C52.38 66.0833 51.6567 67.67 50.21 68.93C48.81 70.19 47.0833 70.82 45.03 70.82C42.93 70.82 41.1567 70.19 39.71 68.93C38.31 67.67 37.61 66.0833 37.61 64.17V43.94C37.61 41.5133 37.82 39.6 38.24 38.2C38.66 36.7533 39.1033 35.6567 39.57 34.91C40.0833 34.1167 40.4333 33.51 40.62 33.09L39.92 31.83C39.08 31.83 38.38 32.0167 37.82 32.39C37.26 32.7167 36.6767 33.1367 36.07 33.65C35.4633 34.1167 34.6933 34.5367 33.76 34.91C32.8267 35.2367 31.5433 35.4 29.91 35.4Z" fill="#3E1D0E"/>
<path d="M132.713 70.68C130.426 70.68 128.233 70.47 126.133 70.05C124.079 69.63 122.259 68.8367 120.673 67.67C119.133 66.4567 117.896 64.73 116.963 62.49C116.076 60.2033 115.632 57.2167 115.632 53.53C115.632 50.2167 116.076 47.37 116.963 44.99C117.849 42.61 118.899 40.72 120.113 39.32C121.373 37.92 122.516 37.0567 123.543 36.73L123.193 35.4H122.003C119.856 35.4 118.153 34.7233 116.892 33.37C115.679 31.97 115.049 30.08 115.003 27.7C114.956 25.3667 115.562 23.5 116.822 22.1C118.129 20.7 119.856 20 122.003 20H147.132C152.126 20 154.623 22.3333 154.623 27C154.623 29.1 154.016 30.78 152.802 32.04C151.589 33.3 149.699 33.93 147.132 33.93H132.642C130.916 33.93 130.052 34.9333 130.052 36.94V42.19C132.386 41.6767 134.813 41.07 137.333 40.37C139.899 39.67 142.326 39.32 144.613 39.32C146.806 39.32 148.439 39.81 149.513 40.79C150.633 41.7233 151.193 43.0067 151.193 44.64C151.193 46.32 150.633 47.65 149.513 48.63C148.439 49.5633 146.806 50.0533 144.613 50.1C142.326 50.1467 139.899 49.82 137.333 49.12C134.766 48.42 132.316 47.8133 129.983 47.3V56.47C129.983 57.3567 130.216 57.9867 130.683 58.36C131.196 58.6867 131.989 58.5467 133.063 57.94C135.396 56.5867 137.683 55.5133 139.923 54.72C142.163 53.88 144.356 53.46 146.503 53.46C149.536 53.46 151.822 54.2533 153.362 55.84C154.949 57.4267 155.743 59.5033 155.743 62.07C155.743 64.8233 154.903 66.9467 153.222 68.44C151.589 69.9333 148.929 70.68 145.243 70.68H132.713Z" fill="#D0C1A6"/>
<path d="M205.38 55.4372C207.107 53.1505 209.02 51.1905 211.12 49.5572C213.22 47.8772 215.553 46.2439 218.12 44.6572C216.953 43.3505 215.67 42.1839 214.27 41.1572C212.917 40.1305 211.54 39.0805 210.14 38.0072C208.787 36.8872 207.48 35.5805 206.22 34.0872C205.007 32.5472 204.167 30.9372 203.7 29.2572C203.233 27.5305 203.233 25.8739 203.7 24.2872C204.213 22.7005 205.24 21.3939 206.78 20.3672C208.46 19.2005 210.163 18.7805 211.89 19.1072C213.617 19.3872 215.25 20.2039 216.79 21.5572C218.33 22.8639 219.66 24.5205 220.78 26.5272C221.807 28.3005 222.81 30.0039 223.79 31.6372C224.77 33.2239 225.727 34.6939 226.66 36.0472C227.92 34.8339 228.83 33.6905 229.39 32.6172C229.95 31.4972 230.44 30.2839 230.86 28.9772C231.327 27.6705 231.98 26.1539 232.82 24.4272C233.52 22.9339 234.477 21.7439 235.69 20.8572C236.95 19.9239 238.35 19.3872 239.89 19.2472C241.43 19.1072 242.947 19.5039 244.44 20.4372C245.933 21.3239 246.913 22.5605 247.38 24.1472C247.893 25.6872 247.917 27.3439 247.45 29.1172C247.03 30.8905 246.167 32.5705 244.86 34.1572C243.367 35.9305 241.547 37.5172 239.4 38.9172C237.3 40.2705 235.083 41.4839 232.75 42.5572C235.083 44.7039 237.347 46.7339 239.54 48.6472C241.733 50.5605 243.717 52.7772 245.49 55.2972C247.263 57.8172 248.08 60.3605 247.94 62.9272C247.847 65.4939 246.703 67.5005 244.51 68.9472C242.223 70.3939 239.867 70.6739 237.44 69.7872C235.013 68.9005 232.89 67.1039 231.07 64.3972C229.297 61.6905 227.827 59.3572 226.66 57.3972C225.54 55.3905 224.443 53.5005 223.37 51.7272C222.997 52.6605 222.67 53.7339 222.39 54.9472C222.157 56.1605 221.807 57.5605 221.34 59.1472C220.92 60.7339 220.197 62.5772 219.17 64.6772C218.33 66.4972 217.163 67.8972 215.67 68.8772C214.177 69.8105 212.567 70.2305 210.84 70.1372C209.113 70.0905 207.457 69.4839 205.87 68.3172C204.563 67.2905 203.7 66.0539 203.28 64.6072C202.907 63.1139 202.907 61.5739 203.28 59.9872C203.653 58.3539 204.353 56.8372 205.38 55.4372Z" fill="#181818"/>
</svg>
